<svg width="26" height="26" viewBox="0 0 26 26" fill="none" xmlns="http://www.w3.org/2000/svg">
<g clip-path="url(#clip0)">
<path d="M13.0099 -0.000117365C5.82977 -0.00616034 0.0059256 5.80967 -0.000117365 12.9898C-0.00616033 20.17 5.80966 25.9939 12.9898 25.9999C20.169 25.9939 25.9888 20.1791 25.9999 12.9999C25.9999 5.82373 20.1861 0.00592561 13.0099 -0.000117365ZM12.9898 23.8366C7.005 23.8366 2.15316 18.9847 2.15316 12.9999C2.15316 7.01506 7.005 2.16322 12.9898 2.16322C18.9726 2.16926 23.8205 7.01709 23.8265 12.9999C23.8265 18.9847 18.9747 23.8366 12.9898 23.8366Z" fill="black"/>
<path d="M16.5016 12.3661C17.3709 11.8761 17.8408 10.8951 17.6788 9.91097C17.4776 8.39165 15.6665 7.81808 14.2376 7.69737V5.41333H12.8289V7.67726H11.8831V5.41333H10.4745V7.67726H7.63696V9.13626H8.69347C9.16639 9.13626 9.3978 9.27712 9.3978 9.65946V15.928C9.3978 16.4512 9.13618 16.6123 8.85444 16.6123H7.77783V18.1014H10.5147V20.4157H11.9334V18.1014H12.8792V20.4157H14.2577V18.1014H14.5596C17.4574 18.1014 18.4234 16.6827 18.4234 14.7508C18.4002 13.6118 17.6104 12.6317 16.5016 12.3661ZM11.8831 9.2268H12.8893C13.5936 9.2268 14.9822 9.34756 14.9822 10.4946C15.0305 11.2432 14.4881 11.8993 13.7445 11.9938H11.8831V9.2268ZM13.4427 16.4714V16.4613H11.8831V13.4427H13.6943C14.1169 13.4427 15.7066 13.5836 15.7066 14.7105C15.7066 15.8375 14.952 16.4714 13.4427 16.4714Z" fill="black"/>
</g>
<defs>
<clipPath id="clip0">
<rect width="26" height="26" fill="white"/>
</clipPath>
</defs>
</svg>
