<svg width="26" height="26" viewBox="0 0 26 26" fill="none" xmlns="http://www.w3.org/2000/svg">
<path d="M15.4375 4.875H5.6875C5.239 4.875 4.875 5.239 4.875 5.6875C4.875 6.136 5.239 6.5 5.6875 6.5H15.4375C15.886 6.5 16.25 6.136 16.25 5.6875C16.25 5.239 15.886 4.875 15.4375 4.875Z" fill="black"/>
<path d="M12.1875 8.125H5.6875C5.239 8.125 4.875 8.489 4.875 8.9375C4.875 9.386 5.239 9.75 5.6875 9.75H12.1875C12.636 9.75 13 9.386 13 8.9375C13 8.489 12.636 8.125 12.1875 8.125Z" fill="black"/>
<path d="M17.875 0H3.25C1.45762 0 0 1.45762 0 3.25V19.5C0 19.8153 0.182 20.1029 0.468 20.2361C0.576875 20.2865 0.6955 20.3125 0.8125 20.3125C0.999375 20.3125 1.18463 20.2475 1.3325 20.124L5.98163 16.25H17.875C19.6674 16.25 21.125 14.7924 21.125 13V3.25C21.125 1.45762 19.6674 0 17.875 0ZM19.5 13C19.5 13.8954 18.772 14.625 17.875 14.625H5.6875C5.49738 14.625 5.31375 14.6916 5.1675 14.8135L1.625 17.7661V3.25C1.625 2.35462 2.353 1.625 3.25 1.625H17.875C18.772 1.625 19.5 2.35462 19.5 3.25V13Z" fill="black"/>
<path d="M22.75 6.5C22.3015 6.5 21.9375 6.864 21.9375 7.3125C21.9375 7.761 22.3015 8.125 22.75 8.125C23.647 8.125 24.375 8.85462 24.375 9.75V23.4959L21.632 21.3021C21.489 21.1884 21.3086 21.125 21.125 21.125H9.75C8.853 21.125 8.125 20.3954 8.125 19.5V18.6875C8.125 18.239 7.761 17.875 7.3125 17.875C6.864 17.875 6.5 18.239 6.5 18.6875V19.5C6.5 21.2924 7.95762 22.75 9.75 22.75H20.839L24.6789 25.8229C24.8267 25.9399 25.0071 26 25.1875 26C25.3061 26 25.4264 25.974 25.5401 25.9204C25.8213 25.7839 26 25.4995 26 25.1875V9.75C26 7.95762 24.5424 6.5 22.75 6.5Z" fill="black"/>
</svg>
