<svg width="9" height="9" viewBox="0 0 9 9" fill="none" xmlns="http://www.w3.org/2000/svg">
<path d="M6.48921 3.07212C6.62654 3.20945 6.62654 3.43206 6.48921 3.56932L4.13072 5.92788C3.99339 6.06514 3.77085 6.06514 3.63352 5.92788L2.51079 4.80508C2.37346 4.66782 2.37346 4.44521 2.51079 4.30795C2.64805 4.17062 2.87066 4.17062 3.00792 4.30795L3.88209 5.18211L5.99201 3.07212C6.12934 2.93486 6.35195 2.93486 6.48921 3.07212ZM9 4.5C9 6.98737 6.98703 9 4.5 9C2.01263 9 0 6.98703 0 4.5C0 2.01263 2.01297 0 4.5 0C6.98737 0 9 2.01297 9 4.5ZM8.29688 4.5C8.29688 2.40127 6.59846 0.703125 4.5 0.703125C2.40127 0.703125 0.703125 2.40154 0.703125 4.5C0.703125 6.59873 2.40154 8.29688 4.5 8.29688C6.59873 8.29688 8.29688 6.59846 8.29688 4.5Z" fill="black"/>
</svg>
