<svg width="27" height="27" viewBox="0 0 27 27" fill="none" xmlns="http://www.w3.org/2000/svg">
<g clip-path="url(#clip0)">
<path d="M13.5 10.916C16.0298 10.916 18.0879 8.8579 18.0879 6.32812C18.0879 3.79835 16.0298 1.74023 13.5 1.74023C10.9702 1.74023 8.91211 3.79835 8.91211 6.32812C8.91211 8.8579 10.9702 10.916 13.5 10.916ZM13.5 3.32227C15.1574 3.32227 16.5059 4.67068 16.5059 6.32812C16.5059 7.98557 15.1574 9.33398 13.5 9.33398C11.8426 9.33398 10.4941 7.98557 10.4941 6.32812C10.4941 4.67068 11.8426 3.32227 13.5 3.32227Z" fill="black"/>
<path d="M22.7812 10.916C24.3805 10.916 25.6816 9.6149 25.6816 8.01562C25.6816 6.41635 24.3805 5.11523 22.7812 5.11523C21.182 5.11523 19.8809 6.41635 19.8809 8.01562C19.8809 9.6149 21.182 10.916 22.7812 10.916ZM22.7812 6.69727C23.5082 6.69727 24.0996 7.28868 24.0996 8.01562C24.0996 8.74257 23.5082 9.33398 22.7812 9.33398C22.0543 9.33398 21.4629 8.74257 21.4629 8.01562C21.4629 7.28868 22.0543 6.69727 22.7812 6.69727Z" fill="black"/>
<path d="M23.4193 12.709H22.1959C20.7542 12.709 19.5097 13.5607 18.9426 14.7842C17.775 13.5096 16.0979 12.709 14.2372 12.709H12.7629C10.9022 12.709 9.22509 13.5096 8.0575 14.7842C7.49034 13.5607 6.24581 12.709 4.8041 12.709H3.58066C1.60629 12.709 0 14.3056 0 16.268V22.0271C0 22.8791 0.695777 23.5723 1.55102 23.5723H6.38819C6.4693 24.5162 7.26305 25.2598 8.22772 25.2598H18.7723C19.7369 25.2598 20.5307 24.5162 20.6119 23.5723H25.3938C26.2795 23.5723 27.0001 22.8546 27.0001 21.9723V16.268C27 14.3056 25.3937 12.709 23.4193 12.709ZM1.58203 16.268C1.58203 15.1779 2.47862 14.291 3.58066 14.291H4.8041C5.90614 14.291 6.80273 15.1779 6.80273 16.268V16.8097C6.2708 18.1947 6.38086 19.0247 6.38086 21.9902H1.58203V16.268ZM19.0371 23.413C19.0371 23.559 18.9184 23.6777 18.7723 23.6777H8.22767C8.08165 23.6777 7.96289 23.5589 7.96289 23.413V19.091C7.96289 16.4443 10.1161 14.291 12.7628 14.291H14.2371C16.8839 14.291 19.0371 16.4443 19.0371 19.091V23.413ZM25.418 21.9723C25.418 21.9996 25.7129 21.9902 20.6191 21.9902C20.6191 19.0028 20.7284 18.1924 20.1973 16.8097V16.268C20.1973 15.1779 21.0939 14.291 22.1959 14.291H23.4193C24.5214 14.291 25.418 15.1779 25.418 16.268V21.9723Z" fill="black"/>
<path d="M4.21875 10.916C5.81803 10.916 7.11914 9.6149 7.11914 8.01562C7.11914 6.41635 5.81803 5.11523 4.21875 5.11523C2.61947 5.11523 1.31836 6.41635 1.31836 8.01562C1.31836 9.6149 2.61947 10.916 4.21875 10.916ZM4.21875 6.69727C4.94569 6.69727 5.53711 7.28868 5.53711 8.01562C5.53711 8.74257 4.94569 9.33398 4.21875 9.33398C3.49181 9.33398 2.90039 8.74257 2.90039 8.01562C2.90039 7.28868 3.49181 6.69727 4.21875 6.69727Z" fill="black"/>
</g>
<defs>
<clipPath id="clip0">
<rect width="27" height="27" fill="white"/>
</clipPath>
</defs>
</svg>
