<svg width="27" height="27" viewBox="0 0 27 27" fill="none" xmlns="http://www.w3.org/2000/svg">
<path d="M4.56098 9.54492H1.46021V11.127H4.56098V9.54492Z" fill="black"/>
<path d="M4.56098 15.873H1.46021V17.4551H4.56098V15.873Z" fill="black"/>
<path d="M4.561 12.709H0V14.291H4.561V12.709Z" fill="black"/>
<path d="M16.5714 3.07153C10.8212 3.07153 6.14294 7.74976 6.14294 13.5C6.14294 19.2503 10.8211 23.9285 16.5714 23.9285C22.3217 23.9285 27 19.2503 27 13.5C27 7.74976 22.3217 3.07153 16.5714 3.07153ZM16.5714 22.3465C11.6935 22.3465 7.72498 18.378 7.72498 13.5C7.72498 8.62209 11.6935 4.65356 16.5714 4.65356C21.4494 4.65356 25.4179 8.62209 25.4179 13.5C25.4179 18.378 21.4494 22.3465 16.5714 22.3465Z" fill="black"/>
<path d="M17.0823 13.8931V8.78326H15.5002V14.7294L19.577 17.5076L20.468 16.2002L17.0823 13.8931Z" fill="black"/>
</svg>
