<svg width="27" height="27" viewBox="0 0 27 27" fill="none" xmlns="http://www.w3.org/2000/svg">
<path d="M24.3 1.35001C22.8118 1.34732 21.6032 2.55156 21.6005 4.03978C21.5993 4.7412 21.8716 5.41551 22.3596 5.91934L17.4267 15.7834C17.3186 15.7654 17.2095 15.7543 17.1 15.7501C16.7514 15.7508 16.4063 15.8193 16.0839 15.9517L12.2544 11.6452C12.478 11.2499 12.5969 10.8042 12.6 10.3501C12.6 8.85891 11.3912 7.65008 9.90003 7.65008C8.40886 7.65008 7.20004 8.85891 7.20004 10.3501C7.20267 10.9946 7.43792 11.6165 7.86243 12.1015L3.18241 20.2986C3.02337 20.268 2.86195 20.2517 2.7 20.25C1.20883 20.25 0 21.4588 0 22.95C0 24.4412 1.20883 25.65 2.7 25.65C4.19117 25.65 5.4 24.4412 5.4 22.95C5.39736 22.3055 5.16212 21.6836 4.7376 21.1986L9.41762 13.0014C9.92002 13.1007 10.4406 13.0474 10.9125 12.8484L14.7421 17.1549C14.5198 17.5505 14.402 17.9962 14.4001 18.45C14.3956 19.9412 15.6007 21.1537 17.0919 21.1581C18.5831 21.1626 19.7955 19.9575 19.8 18.4663C19.8021 17.7628 19.5296 17.0863 19.0404 16.5808L23.9733 6.71673C24.0814 6.73466 24.1905 6.74579 24.3 6.75001C25.7912 6.75001 27 5.54118 27 4.05001C27 2.55884 25.7912 1.35001 24.3 1.35001ZM2.7 23.85C2.20293 23.85 1.79998 23.4471 1.79998 22.95C1.79998 22.4529 2.20293 22.05 2.7 22.05C3.19707 22.05 3.60002 22.4529 3.60002 22.95C3.60002 23.4471 3.19707 23.85 2.7 23.85ZM9.89998 11.25C9.40291 11.25 8.99996 10.847 8.99996 10.35C8.99996 9.8529 9.40291 9.44996 9.89998 9.44996C10.3971 9.44996 10.8 9.8529 10.8 10.35C10.8 10.847 10.3971 11.25 9.89998 11.25ZM17.1 19.35C16.6029 19.35 16.2 18.947 16.2 18.45C16.2 17.9529 16.6029 17.55 17.1 17.55C17.5971 17.55 18 17.9529 18 18.45C18 18.947 17.597 19.35 17.1 19.35ZM24.3 4.95003C23.8029 4.95003 23.4 4.54708 23.4 4.05001C23.4 3.55294 23.8029 3.14999 24.3 3.14999C24.7971 3.14999 25.2 3.55294 25.2 4.05001C25.2 4.54708 24.7971 4.95003 24.3 4.95003Z" fill="black"/>
</svg>
