<svg width="31" height="31" viewBox="0 0 31 31" fill="none" xmlns="http://www.w3.org/2000/svg">
<path d="M18.5067 28.4967H12.0487C6.35058 28.4967 1.71606 23.8622 1.71606 18.164V11.7061C1.71606 6.00789 6.35058 1.37338 12.0487 1.37338H18.5067C24.2048 1.37338 28.8393 6.00789 28.8393 11.7061V18.164C28.8393 23.8622 24.2048 28.4967 18.5067 28.4967Z" fill="#4EE8C4"/>
<g clip-path="url(#clip0)">
<path d="M13.7879 21.8307C14.3964 21.8307 14.8897 21.3374 14.8897 20.7289C14.8897 20.1204 14.3964 19.6272 13.7879 19.6272C13.1794 19.6272 12.6862 20.1204 12.6862 20.7289C12.6862 21.3374 13.1794 21.8307 13.7879 21.8307Z" fill="black"/>
<path d="M17.6767 21.8307C18.2852 21.8307 18.7785 21.3374 18.7785 20.7289C18.7785 20.1204 18.2852 19.6272 17.6767 19.6272C17.0682 19.6272 16.575 20.1204 16.575 20.7289C16.575 21.3374 17.0682 21.8307 17.6767 21.8307Z" fill="black"/>
<path d="M19.1024 18.8495H12.3299L9.80237 11.6881H14.663L15.7324 13.6972L16.8989 11.6881H21.5976L19.1024 18.8495ZM13.302 17.4885H18.1303L19.6857 13.0491H17.7091L15.7 16.4839L13.8529 13.0491H11.7466L13.302 17.4885Z" fill="black"/>
<path d="M13.3021 17.4882L10.1589 8.70663H7.21008L7.72855 10.0676H9.21916L12.33 18.8492L13.3021 17.4882Z" fill="black"/>
</g>
<defs>
<clipPath id="clip0">
<rect width="14.42" height="13.1238" fill="white" transform="translate(7.21008 8.70663)"/>
</clipPath>
</defs>
</svg>
