<svg width="13" height="13" viewBox="0 0 13 13" fill="none" xmlns="http://www.w3.org/2000/svg">
<g clip-path="url(#clip0)">
<path d="M11.7981 2.74794C11.7979 2.74375 11.7975 2.73956 11.7967 2.73539C11.7805 2.71218 11.7605 2.69221 11.7438 2.66946C11.6224 2.50412 11.4939 2.34498 11.3583 2.19202C11.3212 2.15023 11.284 2.10889 11.246 2.06802C11.1063 1.91849 10.9599 1.7759 10.8066 1.6403C10.7783 1.61521 10.7518 1.58922 10.7235 1.5646C10.3458 1.24102 9.93221 0.961768 9.49091 0.732371C9.47325 0.723092 9.45469 0.7152 9.43657 0.705894C9.24004 0.606026 9.03854 0.516253 8.83282 0.436984C8.78637 0.420276 8.74411 0.404466 8.69999 0.390534C8.51702 0.324599 8.33124 0.266855 8.14269 0.217302C8.08696 0.202444 8.03123 0.187124 7.97458 0.174116C7.7888 0.130931 7.60305 0.0979499 7.41308 0.07101C7.3555 0.0626559 7.29885 0.0514989 7.24078 0.0445327C6.75153 -0.0149256 6.2569 -0.0149256 5.76763 0.0445327C5.70958 0.0514989 5.65293 0.0626559 5.59532 0.07101C5.40538 0.0979499 5.21775 0.130931 5.03383 0.174116C4.97717 0.187124 4.92144 0.202444 4.86571 0.217302C4.67591 0.266828 4.49016 0.324572 4.30841 0.390534C4.26196 0.406317 4.2197 0.422127 4.17559 0.436984C3.96989 0.516253 3.76836 0.605998 3.57183 0.705894C3.55371 0.715173 3.53515 0.723064 3.51749 0.732371C3.07473 0.961523 2.65977 1.24075 2.28073 1.5646C2.25241 1.5892 2.22593 1.61521 2.1976 1.6403C2.04279 1.77652 1.89634 1.91911 1.75826 2.06802C1.72019 2.10889 1.68302 2.15023 1.64588 2.19202C1.50995 2.34466 1.38146 2.50379 1.26042 2.66943C1.24371 2.69218 1.22374 2.71215 1.20746 2.73537C1.20534 2.73942 1.20346 2.74361 1.20189 2.74791C-0.399977 4.99282 -0.399977 8.0071 1.20189 10.252C1.20346 10.2563 1.20531 10.2605 1.20746 10.2645C1.22371 10.2877 1.24368 10.3077 1.26042 10.3305C1.38148 10.4958 1.50995 10.6549 1.64588 10.8079C1.68302 10.8497 1.72019 10.891 1.75826 10.9319C1.89821 11.0814 2.04464 11.224 2.1976 11.3596C2.22593 11.3847 2.25241 11.4107 2.28073 11.4353C2.65844 11.7589 3.072 12.0381 3.5133 12.2675C3.53096 12.2768 3.54952 12.2847 3.56764 12.294C3.76417 12.3939 3.96567 12.4837 4.1714 12.5629C4.21785 12.5796 4.26011 12.5955 4.30422 12.6094C4.48719 12.6753 4.67297 12.7331 4.86152 12.7826C4.91725 12.7975 4.97298 12.8128 5.02964 12.8258C5.21541 12.869 5.40116 12.902 5.59113 12.9289C5.64871 12.9373 5.70537 12.9484 5.76344 12.9554C6.25268 13.0148 6.74731 13.0148 7.23659 12.9554C7.29463 12.9484 7.35129 12.9373 7.40889 12.9289C7.59883 12.902 7.78646 12.869 7.97039 12.8258C8.02704 12.8128 8.08277 12.7975 8.1385 12.7826C8.3286 12.7331 8.51438 12.6753 8.6958 12.6094C8.74226 12.5936 8.78452 12.5778 8.82863 12.5629C9.03432 12.4837 9.23585 12.3939 9.43238 12.294C9.4505 12.2847 9.46906 12.2769 9.48672 12.2675C9.92802 12.0381 10.3416 11.7589 10.7193 11.4353C10.7476 11.4107 10.7741 11.3847 10.8024 11.3596C10.9572 11.2237 11.1037 11.0811 11.2418 10.9319C11.2798 10.891 11.317 10.8497 11.3541 10.8079C11.4901 10.6549 11.6186 10.4958 11.7396 10.3305C11.7563 10.3077 11.7763 10.2877 11.7926 10.2645C11.7947 10.2605 11.7966 10.2563 11.7981 10.252C13.4 8.00712 13.4 4.99285 11.7981 2.74794ZM11.2682 3.62664C11.7124 4.35813 11.9806 5.18276 12.0517 6.03559H9.26984C9.23577 5.4822 9.14869 4.93339 9.00978 4.39666C9.79558 4.2495 10.5562 3.99017 11.2682 3.62664ZM7.68384 1.05513C7.70986 1.06117 7.73492 1.06953 7.76093 1.07557C7.9272 1.11459 8.09208 1.15916 8.25323 1.21489C8.27785 1.22325 8.30199 1.23302 8.32616 1.24183C8.48592 1.29756 8.64334 1.35934 8.79755 1.42761C8.82449 1.44016 8.85097 1.45409 8.87791 1.46663C9.02559 1.53692 9.16986 1.61292 9.31074 1.69467L9.40361 1.75086C9.53736 1.83261 9.66741 1.92007 9.79373 2.01327C9.82625 2.03694 9.85874 2.05972 9.89079 2.08571C10.0146 2.17858 10.1332 2.27812 10.2465 2.38433C10.2763 2.41127 10.3069 2.43775 10.3362 2.46561C10.4551 2.57846 10.5684 2.69781 10.678 2.82136C10.6919 2.8376 10.7068 2.85246 10.7207 2.86781C10.0919 3.16749 9.42568 3.38149 8.73997 3.50405C8.4223 2.63076 8.00266 1.79802 7.48977 1.02313C7.55426 1.03472 7.62022 1.04123 7.68384 1.05513ZM4.6614 6.03556C4.69803 5.53306 4.78359 5.03533 4.91684 4.54943C5.44304 4.61193 5.97248 4.64293 6.50238 4.6423C7.03277 4.64214 7.5627 4.61036 8.0893 4.54709C8.22231 5.03378 8.30741 5.5323 8.34333 6.03556H4.6614ZM8.34333 6.96441C8.3067 7.46691 8.22114 7.96465 8.08789 8.45054C7.56169 8.38804 7.03225 8.35704 6.50235 8.35767C5.97199 8.35707 5.44209 8.38807 4.91543 8.45054C4.78255 7.96462 4.69749 7.46688 4.66138 6.96441H8.34333ZM6.50235 1.22978C7.03086 1.97885 7.46555 2.7899 7.79669 3.64477C7.36677 3.69043 6.93472 3.71337 6.50235 3.7135C6.07047 3.71299 5.63889 3.68991 5.2094 3.6443C5.54095 2.79001 5.97512 1.97923 6.50235 1.22978ZM2.32724 2.82087C2.43639 2.69732 2.55016 2.57797 2.66905 2.46512C2.6983 2.43726 2.72897 2.41078 2.75869 2.38384C2.87325 2.27951 2.99184 2.17997 3.11443 2.08522C3.14648 2.06059 3.17897 2.03877 3.21149 2.01278C3.33781 1.9199 3.46786 1.83242 3.60161 1.75037L3.69448 1.69418C3.83536 1.61184 3.97963 1.53581 4.12731 1.46614C4.15425 1.4536 4.18073 1.43967 4.20767 1.42712C4.36185 1.35746 4.5193 1.29569 4.67907 1.24134C4.7032 1.23253 4.72552 1.22276 4.75197 1.2144C4.91312 1.16052 5.07707 1.11595 5.24426 1.07508C5.27027 1.06904 5.29534 1.06068 5.32181 1.05511C5.38543 1.04117 5.4514 1.03467 5.51594 1.02305C5.00283 1.79808 4.58306 2.63098 4.26525 3.50443C3.57954 3.38187 2.91333 3.16787 2.28452 2.86819C2.29845 2.85197 2.31331 2.83711 2.32724 2.82087ZM1.73649 3.62664C2.44839 3.99014 3.20883 4.24947 3.99449 4.39666C3.85574 4.93342 3.7688 5.48223 3.73489 6.03559H0.953032C1.02416 5.18276 1.29237 4.35813 1.73649 3.62664ZM1.73649 9.37336C1.29234 8.64187 1.02414 7.81724 0.953032 6.96441H3.73489C3.76896 7.5178 3.85604 8.06661 3.99495 8.60334C3.20915 8.75047 2.44855 9.00981 1.73649 9.37336ZM5.32089 11.9448C5.29487 11.9388 5.26981 11.9304 5.2438 11.9244C5.07753 11.8854 4.91265 11.8408 4.7515 11.7851C4.72688 11.7767 4.70274 11.767 4.67858 11.7581C4.51881 11.7024 4.36139 11.6406 4.20718 11.5724C4.18024 11.5598 4.15376 11.5459 4.12682 11.5333C3.97914 11.4631 3.83487 11.387 3.69399 11.3053L3.60112 11.2491C3.46737 11.1674 3.33732 11.0799 3.211 10.9867C3.17849 10.963 3.14599 10.9403 3.11394 10.9143C2.9901 10.8214 2.87151 10.7219 2.7582 10.6156C2.72848 10.5887 2.69781 10.5622 2.66856 10.5344C2.54967 10.4215 2.43636 10.3022 2.32675 10.1786C2.31282 10.1624 2.29796 10.1475 2.28403 10.1322C2.91287 9.83248 3.57905 9.61848 4.26476 9.49592C4.58244 10.3692 5.00207 11.202 5.51496 11.9768C5.45044 11.9653 5.38451 11.9588 5.32089 11.9448ZM6.50235 11.7702C5.97384 11.0212 5.53916 10.2101 5.20801 9.35524C6.0681 9.26266 6.93565 9.26266 7.79574 9.35524L7.79528 9.3557C7.46378 10.21 7.02961 11.0207 6.50235 11.7702ZM10.6775 10.1791C10.5683 10.3026 10.4546 10.422 10.3357 10.5348C10.3064 10.5627 10.2758 10.5892 10.246 10.6161C10.1315 10.7208 10.0129 10.8203 9.8903 10.9148C9.85825 10.9394 9.82576 10.9635 9.79324 10.9872C9.66692 11.0801 9.53687 11.1676 9.40313 11.2496L9.31025 11.3058C9.16967 11.3878 9.0254 11.4638 8.87742 11.5338C8.85048 11.5464 8.824 11.5603 8.79706 11.5729C8.64288 11.6425 8.48543 11.7043 8.32567 11.7586C8.30153 11.7674 8.27921 11.7772 8.25276 11.7856C8.09161 11.8394 7.92766 11.884 7.76047 11.9249C7.73446 11.9309 7.7094 11.9393 7.68292 11.9449C7.6193 11.9588 7.55333 11.9653 7.48879 11.9769C8.00168 11.202 8.42134 10.3693 8.73899 9.496C9.42471 9.61857 10.0909 9.83256 10.7197 10.1322C10.7063 10.148 10.6914 10.1629 10.6775 10.1791ZM11.2682 9.37336C10.5563 9.00986 9.7959 8.75053 9.01024 8.60334C9.14899 8.06658 9.23594 7.51777 9.26984 6.96441H12.0517C11.9806 7.81721 11.7124 8.64184 11.2682 9.37336Z" fill="white"/>
</g>
<defs>
<clipPath id="clip0">
<rect width="13" height="13" fill="white"/>
</clipPath>
</defs>
</svg>
