<svg width="13" height="13" viewBox="0 0 13 13" fill="none" xmlns="http://www.w3.org/2000/svg">
<path d="M12.4584 0H2.70843C2.40928 0 2.16675 0.242506 2.16675 0.541658V4.33332C2.16675 4.63247 2.40925 4.87497 2.70841 4.87497C3.00756 4.87497 3.25006 4.63247 3.25006 4.33332V1.08332H11.9167V11.9167H3.25009V8.66666C3.25009 8.36751 3.00758 8.125 2.70843 8.125C2.40928 8.125 2.16677 8.36751 2.16677 8.66666V12.4583C2.16677 12.7575 2.40928 13 2.70843 13H12.4584C12.7576 13 13.0001 12.7575 13.0001 12.4583V0.541658C13.0001 0.242506 12.7576 0 12.4584 0Z" fill="white"/>
<path d="M5.03364 8.28372C4.82211 8.49525 4.82211 8.83822 5.03364 9.04975C5.24517 9.26128 5.58815 9.26128 5.79968 9.04975L7.96633 6.88309C7.96643 6.88299 7.96649 6.88289 7.96659 6.88281C7.9791 6.87027 7.99096 6.85712 8.00221 6.84341C8.00736 6.83714 8.01183 6.83054 8.01666 6.82409C8.02242 6.81639 8.02839 6.80885 8.03375 6.80083C8.0389 6.79311 8.04337 6.78511 8.04809 6.77719C8.05243 6.76993 8.05698 6.76284 8.06099 6.75538C8.06531 6.74731 8.06896 6.73903 8.07285 6.73078C8.07653 6.72298 8.08041 6.71531 8.08374 6.70734C8.08704 6.69934 8.08973 6.69117 8.09263 6.68304C8.0957 6.67448 8.09897 6.66606 8.10161 6.65732C8.10408 6.6492 8.10588 6.64092 8.10794 6.63272C8.1102 6.6238 8.11269 6.61499 8.11449 6.60593C8.11637 6.59641 8.11751 6.58681 8.11888 6.57724C8.12 6.56934 8.12152 6.56157 8.12231 6.55355C8.12581 6.518 8.12581 6.48218 8.12231 6.44663C8.12152 6.43863 8.12002 6.43086 8.11888 6.42294C8.11751 6.41337 8.11639 6.40374 8.11449 6.39425C8.11269 6.38516 8.1102 6.37637 8.10794 6.36746C8.10588 6.35923 8.10408 6.35098 8.10161 6.34286C8.09897 6.33412 8.0957 6.32567 8.09263 6.31714C8.08971 6.30901 8.08704 6.30084 8.08374 6.29284C8.08044 6.28484 8.07653 6.2772 8.07285 6.2694C8.06896 6.26118 8.06531 6.25287 8.06099 6.2448C8.05698 6.23733 8.05243 6.23025 8.04809 6.22299C8.04337 6.21507 8.0389 6.20707 8.03375 6.19935C8.02839 6.19133 8.02242 6.18381 8.01666 6.17609C8.01183 6.16964 8.00736 6.16304 8.00221 6.15677C7.99096 6.14306 7.9791 6.12988 7.96659 6.11736C7.96649 6.11726 7.96643 6.11716 7.96633 6.11708L5.79968 3.95043C5.58815 3.7389 5.24517 3.7389 5.03364 3.95043C4.82211 4.16195 4.82211 4.50493 5.03364 4.71646L6.27562 5.95844H0.541658C0.242506 5.95839 0 6.2009 0 6.50005C0 6.7992 0.242506 7.04171 0.541658 7.04171H6.27562L5.03364 8.28372Z" fill="white"/>
</svg>
