<svg width="65" height="20" viewBox="0 0 65 20" fill="none" xmlns="http://www.w3.org/2000/svg">
<path d="M11.1573 7.82613H10.3421V1.64406H11.1573V7.82613Z" fill="white"/>
<path d="M13.2718 3.23204L13.2973 3.80948C13.6483 3.36791 14.1068 3.14712 14.673 3.14712C15.6439 3.14712 16.1336 3.69484 16.142 4.79029V7.82613H15.3565V4.78605C15.3537 4.45486 15.2773 4.21001 15.1273 4.0515C14.9801 3.89299 14.7494 3.81373 14.4352 3.81373C14.1804 3.81373 13.9568 3.88166 13.7643 4.01753C13.5718 4.1534 13.4218 4.33173 13.3143 4.55252V7.82613H12.5288V3.23204H13.2718Z" fill="white"/>
<path d="M21.3263 7.26991C21.6065 7.26991 21.8514 7.18499 22.0609 7.01516C22.2703 6.84532 22.3864 6.63302 22.409 6.37827H23.1521C23.1379 6.64151 23.0473 6.89202 22.8803 7.1298C22.7133 7.36757 22.4897 7.55722 22.2095 7.69875C21.9321 7.84028 21.6377 7.91105 21.3263 7.91105C20.7007 7.91105 20.2026 7.70299 19.8317 7.28689C19.4638 6.86796 19.2798 6.29618 19.2798 5.57154V5.43992C19.2798 4.99268 19.3619 4.59498 19.526 4.24681C19.6902 3.89865 19.9252 3.62832 20.2309 3.43584C20.5394 3.24336 20.9031 3.14712 21.3221 3.14712C21.8372 3.14712 22.2647 3.30139 22.6043 3.60992C22.9468 3.91846 23.1294 4.31899 23.1521 4.81152H22.409C22.3864 4.51431 22.2732 4.27087 22.0694 4.08122C21.8684 3.88874 21.6193 3.7925 21.3221 3.7925C20.923 3.7925 20.613 3.93686 20.3922 4.22558C20.1743 4.51148 20.0653 4.92616 20.0653 5.46964V5.61825C20.0653 6.14757 20.1743 6.55518 20.3922 6.84107C20.6102 7.12696 20.9215 7.26991 21.3263 7.26991Z" fill="white"/>
<path d="M23.8272 5.48662C23.8272 5.03655 23.9149 4.63178 24.0904 4.27229C24.2687 3.9128 24.515 3.6354 24.8292 3.44009C25.1462 3.24477 25.5071 3.14712 25.9119 3.14712C26.5375 3.14712 27.0427 3.36366 27.4277 3.79674C27.8155 4.22983 28.0094 4.80586 28.0094 5.52484V5.58003C28.0094 6.02727 27.9231 6.42922 27.7504 6.78588C27.5806 7.1397 27.3357 7.41569 27.0159 7.61383C26.6988 7.81197 26.3337 7.91105 25.9204 7.91105C25.2977 7.91105 24.7924 7.6945 24.4046 7.26142C24.0196 6.82833 23.8272 6.25513 23.8272 5.54182V5.48662ZM24.6169 5.58003C24.6169 6.08954 24.7344 6.49857 24.9693 6.80711C25.2071 7.11564 25.5241 7.26991 25.9204 7.26991C26.3195 7.26991 26.6366 7.11423 26.8715 6.80286C27.1064 6.48866 27.2239 6.04992 27.2239 5.48662C27.2239 4.98277 27.1036 4.57516 26.863 4.2638C26.6252 3.9496 26.3082 3.7925 25.9119 3.7925C25.5241 3.7925 25.2113 3.94677 24.9736 4.2553C24.7358 4.56384 24.6169 5.00542 24.6169 5.58003Z" fill="white"/>
<path d="M28.7864 5.48662C28.7864 5.03655 28.8742 4.63178 29.0497 4.27229C29.228 3.9128 29.4742 3.6354 29.7884 3.44009C30.1055 3.24477 30.4664 3.14712 30.8712 3.14712C31.4967 3.14712 32.002 3.36366 32.3869 3.79674C32.7747 4.22983 32.9686 4.80586 32.9686 5.52484V5.58003C32.9686 6.02727 32.8823 6.42922 32.7096 6.78588C32.5398 7.1397 32.295 7.41569 31.9751 7.61383C31.6581 7.81197 31.2929 7.91105 30.8796 7.91105C30.2569 7.91105 29.7516 7.6945 29.3638 7.26142C28.9789 6.82833 28.7864 6.25513 28.7864 5.54182V5.48662ZM29.5761 5.58003C29.5761 6.08954 29.6936 6.49857 29.9286 6.80711C30.1663 7.11564 30.4834 7.26991 30.8796 7.26991C31.2788 7.26991 31.5958 7.11423 31.8307 6.80286C32.0657 6.48866 32.1831 6.04992 32.1831 5.48662C32.1831 4.98277 32.0628 4.57516 31.8222 4.2638C31.5845 3.9496 31.2674 3.7925 30.8712 3.7925C30.4834 3.7925 30.1706 3.94677 29.9328 4.2553C29.695 4.56384 29.5761 5.00542 29.5761 5.58003Z" fill="white"/>
<path d="M37.8345 5.58003C37.8345 6.27919 37.6745 6.84249 37.3547 7.26991C37.0348 7.69733 36.6017 7.91105 36.0554 7.91105C35.4978 7.91105 35.059 7.73413 34.7392 7.3803V9.59243H33.9537V3.23204H34.6713L34.7095 3.74155C35.0293 3.34526 35.4737 3.14712 36.0427 3.14712C36.5947 3.14712 37.0306 3.35517 37.3504 3.77127C37.6731 4.18737 37.8345 4.76623 37.8345 5.50785V5.58003ZM37.049 5.49087C37.049 4.97287 36.9386 4.56384 36.7178 4.2638C36.497 3.96375 36.1941 3.81373 35.8092 3.81373C35.3336 3.81373 34.977 4.02461 34.7392 4.44637V6.64151C34.9741 7.06044 35.3336 7.26991 35.8177 7.26991C36.1941 7.26991 36.4928 7.1213 36.7135 6.82409C36.9372 6.52404 37.049 6.07964 37.049 5.49087Z" fill="white"/>
<path d="M40.7429 7.91105C40.1202 7.91105 39.6135 7.70724 39.2229 7.29963C38.8323 6.88919 38.6369 6.34147 38.6369 5.65646V5.5121C38.6369 5.05637 38.7233 4.65018 38.8959 4.29352C39.0714 3.93403 39.3149 3.6538 39.6262 3.45283C39.9404 3.24902 40.2801 3.14712 40.6453 3.14712C41.2425 3.14712 41.7067 3.34385 42.0379 3.7373C42.3691 4.13076 42.5347 4.69405 42.5347 5.42718V5.75412H39.4224C39.4338 6.20701 39.5654 6.57358 39.8173 6.85381C40.0721 7.13121 40.3948 7.26991 40.7854 7.26991C41.0628 7.26991 41.2977 7.2133 41.4902 7.10007C41.6827 6.98685 41.8511 6.83683 41.9955 6.65001L42.4753 7.02365C42.0903 7.61525 41.5129 7.91105 40.7429 7.91105ZM40.6453 3.7925C40.3282 3.7925 40.0622 3.90855 39.847 4.14066C39.6319 4.36994 39.4989 4.69263 39.4479 5.10874H41.7492V5.04929C41.7266 4.65018 41.619 4.34164 41.4265 4.12368C41.234 3.90289 40.9736 3.7925 40.6453 3.7925Z" fill="white"/>
<path d="M45.6682 3.93686C45.5493 3.91705 45.4205 3.90714 45.2818 3.90714C44.7666 3.90714 44.4171 4.12651 44.2331 4.56526V7.82613H43.4476V3.23204H44.2118L44.2246 3.76278C44.4822 3.35234 44.8473 3.14712 45.32 3.14712C45.4729 3.14712 45.5889 3.16693 45.6682 3.20656V3.93686Z" fill="white"/>
<path d="M49.0607 7.82613C49.0154 7.73555 48.9786 7.5742 48.9503 7.34209C48.5851 7.72139 48.1492 7.91105 47.6426 7.91105C47.1897 7.91105 46.8174 7.78367 46.5259 7.52891C46.2371 7.27133 46.0928 6.94581 46.0928 6.55235C46.0928 6.07398 46.2739 5.70316 46.6363 5.43992C47.0014 5.17384 47.5138 5.0408 48.1733 5.0408H48.9376V4.6799C48.9376 4.40533 48.8555 4.18737 48.6913 4.02602C48.5271 3.86185 48.2851 3.77976 47.9652 3.77976C47.685 3.77976 47.4501 3.85053 47.2604 3.99206C47.0708 4.13359 46.9759 4.30484 46.9759 4.50581H46.1862C46.1862 4.27653 46.2669 4.05575 46.4282 3.84345C46.5924 3.62832 46.8132 3.45849 47.0906 3.33394C47.3708 3.20939 47.6779 3.14712 48.0119 3.14712C48.5413 3.14712 48.956 3.28016 49.256 3.54624C49.556 3.80948 49.7117 4.17322 49.7231 4.63744V6.75191C49.7231 7.17367 49.7768 7.5091 49.8844 7.75819V7.82613H49.0607ZM47.7572 7.22745C48.0035 7.22745 48.237 7.16376 48.4578 7.03638C48.6786 6.90901 48.8385 6.74342 48.9376 6.53961V5.59702H48.3219C47.3595 5.59702 46.8783 5.87866 46.8783 6.44196C46.8783 6.68822 46.9604 6.8807 47.1245 7.0194C47.2887 7.1581 47.4996 7.22745 47.7572 7.22745Z" fill="white"/>
<path d="M52.0201 2.11961V3.23204H52.8778V3.8392H52.0201V6.68822C52.0201 6.87221 52.0583 7.01091 52.1347 7.10432C52.2112 7.1949 52.3414 7.24019 52.5254 7.24019C52.6159 7.24019 52.7405 7.22321 52.899 7.18924V7.82613C52.6924 7.88274 52.4914 7.91105 52.2961 7.91105C51.9451 7.91105 51.6804 7.8049 51.5021 7.5926C51.3238 7.3803 51.2346 7.07884 51.2346 6.68822V3.8392H50.3982V3.23204H51.2346V2.11961H52.0201Z" fill="white"/>
<path d="M54.6526 7.82613H53.8671V3.23204H54.6526V7.82613ZM53.8034 2.01346C53.8034 1.88608 53.8416 1.77852 53.918 1.69077C53.9973 1.60302 54.1133 1.55914 54.2662 1.55914C54.419 1.55914 54.5351 1.60302 54.6144 1.69077C54.6936 1.77852 54.7332 1.88608 54.7332 2.01346C54.7332 2.14083 54.6936 2.24698 54.6144 2.3319C54.5351 2.41682 54.419 2.45928 54.2662 2.45928C54.1133 2.45928 53.9973 2.41682 53.918 2.3319C53.8416 2.24698 53.8034 2.14083 53.8034 2.01346Z" fill="white"/>
<path d="M55.7056 5.48662C55.7056 5.03655 55.7933 4.63178 55.9688 4.27229C56.1471 3.9128 56.3934 3.6354 56.7076 3.44009C57.0246 3.24477 57.3855 3.14712 57.7903 3.14712C58.4159 3.14712 58.9211 3.36366 59.3061 3.79674C59.6939 4.22983 59.8878 4.80586 59.8878 5.52484V5.58003C59.8878 6.02727 59.8015 6.42922 59.6288 6.78588C59.459 7.1397 59.2141 7.41569 58.8942 7.61383C58.5772 7.81197 58.2121 7.91105 57.7988 7.91105C57.1761 7.91105 56.6708 7.6945 56.283 7.26142C55.898 6.82833 55.7056 6.25513 55.7056 5.54182V5.48662ZM56.4953 5.58003C56.4953 6.08954 56.6128 6.49857 56.8477 6.80711C57.0855 7.11564 57.4025 7.26991 57.7988 7.26991C58.1979 7.26991 58.5149 7.11423 58.7499 6.80286C58.9848 6.48866 59.1023 6.04992 59.1023 5.48662C59.1023 4.98277 58.982 4.57516 58.7414 4.2638C58.5036 3.9496 58.1866 3.7925 57.7903 3.7925C57.4025 3.7925 57.0897 3.94677 56.852 4.2553C56.6142 4.56384 56.4953 5.00542 56.4953 5.58003Z" fill="white"/>
<path d="M61.6159 3.23204L61.6414 3.80948C61.9924 3.36791 62.4509 3.14712 63.017 3.14712C63.9879 3.14712 64.4776 3.69484 64.4861 4.79029V7.82613H63.7006V4.78605C63.6978 4.45486 63.6214 4.21001 63.4714 4.0515C63.3242 3.89299 63.0935 3.81373 62.7793 3.81373C62.5245 3.81373 62.3009 3.88166 62.1084 4.01753C61.9159 4.1534 61.7659 4.33173 61.6583 4.55252V7.82613H60.8728V3.23204H61.6159Z" fill="white"/>
<path d="M14.2271 17.1782L15.1103 13.6668H15.8958L14.5583 18.2609H13.9214L12.8047 14.7793L11.7178 18.2609H11.0809L9.74768 13.6668H10.5289L11.4333 17.106L12.5033 13.6668H13.1359L14.2271 17.1782Z" fill="white"/>
<path d="M17.5517 18.2609H16.7662V13.6668H17.5517V18.2609ZM16.7025 12.4482C16.7025 12.3209 16.7407 12.2133 16.8171 12.1255C16.8964 12.0378 17.0125 11.9939 17.1653 11.9939C17.3182 11.9939 17.4342 12.0378 17.5135 12.1255C17.5927 12.2133 17.6324 12.3209 17.6324 12.4482C17.6324 12.5756 17.5927 12.6818 17.5135 12.7667C17.4342 12.8516 17.3182 12.8941 17.1653 12.8941C17.0125 12.8941 16.8964 12.8516 16.8171 12.7667C16.7407 12.6818 16.7025 12.5756 16.7025 12.4482Z" fill="white"/>
<path d="M19.8785 12.5544V13.6668H20.7361V14.274H19.8785V17.123C19.8785 17.307 19.9167 17.4457 19.9931 17.5391C20.0695 17.6297 20.1997 17.675 20.3837 17.675C20.4743 17.675 20.5988 17.658 20.7574 17.624V18.2609C20.5507 18.3175 20.3498 18.3458 20.1544 18.3458C19.8034 18.3458 19.5388 18.2397 19.3605 18.0274C19.1821 17.8151 19.093 17.5136 19.093 17.123V14.274H18.2565V13.6668H19.093V12.5544H19.8785Z" fill="white"/>
<path d="M22.443 14.223C22.7912 13.7956 23.2441 13.5819 23.8017 13.5819C24.7726 13.5819 25.2623 14.1296 25.2708 15.2251V18.2609H24.4853V15.2208C24.4825 14.8896 24.406 14.6448 24.256 14.4863C24.1088 14.3278 23.8781 14.2485 23.5639 14.2485C23.3092 14.2485 23.0855 14.3164 22.8931 14.4523C22.7006 14.5882 22.5506 14.7665 22.443 14.9873V18.2609H21.6575V11.7392H22.443V14.223Z" fill="white"/>
<path d="M32.1407 16.6475H29.5507L28.969 18.2609H28.1283L30.489 12.0788H31.2023L33.5673 18.2609H32.7309L32.1407 16.6475ZM29.7969 15.9766H31.8987L30.8457 13.0851L29.7969 15.9766Z" fill="white"/>
<path d="M35.0194 13.6668L35.0449 14.2443C35.3959 13.8027 35.8545 13.5819 36.4206 13.5819C37.3915 13.5819 37.8812 14.1296 37.8897 15.2251V18.2609H37.1042V15.2208C37.1013 14.8896 37.0249 14.6448 36.8749 14.4863C36.7277 14.3278 36.497 14.2485 36.1828 14.2485C35.928 14.2485 35.7044 14.3164 35.5119 14.4523C35.3195 14.5882 35.1694 14.7665 35.0619 14.9873V18.2609H34.2764V13.6668H35.0194Z" fill="white"/>
<path d="M40.14 12.5544V13.6668H40.9977V14.274H40.14V17.123C40.14 17.307 40.1782 17.4457 40.2546 17.5391C40.3311 17.6297 40.4613 17.675 40.6453 17.675C40.7358 17.675 40.8604 17.658 41.0189 17.624V18.2609C40.8123 18.3175 40.6113 18.3458 40.416 18.3458C40.065 18.3458 39.8003 18.2397 39.622 18.0274C39.4437 17.8151 39.3545 17.5136 39.3545 17.123V14.274H38.5181V13.6668H39.3545V12.5544H40.14Z" fill="white"/>
<path d="M44.7553 18.2609C44.71 18.1703 44.6732 18.009 44.6449 17.7769C44.2798 18.1562 43.8439 18.3458 43.3372 18.3458C42.8843 18.3458 42.5121 18.2184 42.2205 17.9637C41.9318 17.7061 41.7874 17.3806 41.7874 16.9871C41.7874 16.5088 41.9686 16.1379 42.3309 15.8747C42.696 15.6086 43.2084 15.4756 43.8679 15.4756H44.6322V15.1147C44.6322 14.8401 44.5501 14.6222 44.3859 14.4608C44.2218 14.2966 43.9797 14.2145 43.6599 14.2145C43.3796 14.2145 43.1447 14.2853 42.9551 14.4268C42.7654 14.5684 42.6706 14.7396 42.6706 14.9406H41.8808C41.8808 14.7113 41.9615 14.4905 42.1228 14.2782C42.287 14.0631 42.5078 13.8933 42.7852 13.7687C43.0654 13.6442 43.3726 13.5819 43.7066 13.5819C44.2359 13.5819 44.6506 13.7149 44.9506 13.981C45.2507 14.2443 45.4064 14.608 45.4177 15.0722V17.1867C45.4177 17.6085 45.4715 17.9439 45.579 18.193V18.2609H44.7553ZM43.4518 17.6622C43.6981 17.6622 43.9316 17.5985 44.1524 17.4712C44.3732 17.3438 44.5331 17.1782 44.6322 16.9744V16.0318H44.0165C43.0541 16.0318 42.5729 16.3134 42.5729 16.8767C42.5729 17.123 42.655 17.3155 42.8192 17.4542C42.9834 17.5929 43.1942 17.6622 43.4518 17.6622Z" fill="white"/>
<path d="M48.8696 14.3716C48.7507 14.3518 48.6219 14.3419 48.4832 14.3419C47.9681 14.3419 47.6185 14.5613 47.4345 15V18.2609H46.649V13.6668H47.4133L47.426 14.1976C47.6836 13.7871 48.0487 13.5819 48.5215 13.5819C48.6743 13.5819 48.7904 13.6017 48.8696 13.6413V14.3716Z" fill="white"/>
<path d="M51.4172 18.3458C50.7944 18.3458 50.2878 18.142 49.8971 17.7344C49.5065 17.324 49.3112 16.7763 49.3112 16.0912V15.9469C49.3112 15.4912 49.3975 15.085 49.5702 14.7283C49.7457 14.3688 49.9891 14.0886 50.3005 13.8876C50.6147 13.6838 50.9544 13.5819 51.3195 13.5819C51.9168 13.5819 52.381 13.7786 52.7122 14.1721C53.0434 14.5655 53.209 15.1288 53.209 15.862V16.1889H50.0967C50.108 16.6418 50.2396 17.0084 50.4916 17.2886C50.7463 17.566 51.069 17.7047 51.4596 17.7047C51.737 17.7047 51.972 17.6481 52.1645 17.5349C52.3569 17.4216 52.5254 17.2716 52.6697 17.0848L53.1495 17.4584C52.7645 18.05 52.1871 18.3458 51.4172 18.3458ZM51.3195 14.2273C51.0025 14.2273 50.7364 14.3433 50.5213 14.5754C50.3062 14.8047 50.1731 15.1274 50.1222 15.5435H52.4235V15.4841C52.4008 15.085 52.2933 14.7764 52.1008 14.5585C51.9083 14.3377 51.6479 14.2273 51.3195 14.2273Z" fill="white"/>
<path d="M56.7968 17.0423C56.7968 16.83 56.7161 16.6659 56.5547 16.5498C56.3962 16.4309 56.1174 16.329 55.7183 16.2441C55.322 16.1592 55.0064 16.0573 54.7715 15.9384C54.5393 15.8195 54.3667 15.678 54.2535 15.5138C54.1431 15.3496 54.0879 15.1543 54.0879 14.9279C54.0879 14.5514 54.2464 14.2329 54.5634 13.9725C54.8833 13.7121 55.2909 13.5819 55.7862 13.5819C56.3071 13.5819 56.7288 13.7164 57.0515 13.9853C57.377 14.2542 57.5398 14.5981 57.5398 15.017H56.7501C56.7501 14.8019 56.6581 14.6165 56.4741 14.4608C56.2929 14.3051 56.0636 14.2273 55.7862 14.2273C55.5003 14.2273 55.2767 14.2896 55.1154 14.4141C54.954 14.5386 54.8734 14.7014 54.8734 14.9024C54.8734 15.092 54.9484 15.235 55.0984 15.3312C55.2484 15.4275 55.5187 15.5195 55.9094 15.6072C56.3028 15.695 56.6213 15.7997 56.8647 15.9214C57.1081 16.0431 57.2879 16.1903 57.4039 16.363C57.5228 16.5328 57.5823 16.7409 57.5823 16.9871C57.5823 17.3976 57.4181 17.7273 57.0897 17.9764C56.7614 18.2227 56.3354 18.3458 55.8117 18.3458C55.4437 18.3458 55.1182 18.2807 54.8351 18.1505C54.5521 18.0203 54.3299 17.8391 54.1685 17.607C54.01 17.3721 53.9308 17.1188 53.9308 16.847H54.7163C54.7304 17.1103 54.8351 17.3197 55.0305 17.4754C55.2286 17.6283 55.489 17.7047 55.8117 17.7047C56.1089 17.7047 56.3467 17.6453 56.525 17.5264C56.7062 17.4046 56.7968 17.2433 56.7968 17.0423Z" fill="white"/>
<path fill-rule="evenodd" clip-rule="evenodd" d="M0.869564 -3.80099e-08L0.869565 20L0 20L-8.74228e-07 0L0.869564 -3.80099e-08Z" fill="white"/>
</svg>
