<svg width="158" height="31" viewBox="0 0 158 31" fill="none" xmlns="http://www.w3.org/2000/svg">
<path d="M18.4137 27.9503H12.2485C6.80861 27.9503 2.38416 23.5259 2.38416 18.086V11.9208C2.38416 6.48085 6.80861 2.0564 12.2485 2.0564H18.4137C23.8536 2.0564 28.2781 6.48085 28.2781 11.9208V18.086C28.2781 23.5259 23.8536 27.9503 18.4137 27.9503Z" fill="white"/>
<g clip-path="url(#clip0)">
<path d="M13.9083 21.5866C14.4892 21.5866 14.9601 21.1157 14.9601 20.5348C14.9601 19.9539 14.4892 19.483 13.9083 19.483C13.3274 19.483 12.8564 19.9539 12.8564 20.5348C12.8564 21.1157 13.3274 21.5866 13.9083 21.5866Z" fill="white"/>
<path d="M17.6208 21.5866C18.2017 21.5866 18.6726 21.1157 18.6726 20.5348C18.6726 19.9539 18.2017 19.483 17.6208 19.483C17.0399 19.483 16.569 19.9539 16.569 20.5348C16.569 21.1157 17.0399 21.5866 17.6208 21.5866Z" fill="white"/>
<path d="M18.9817 18.7404H12.5161L10.1031 11.9036H14.7435L15.7644 13.8216L16.8781 11.9036H21.3638L18.9817 18.7404ZM13.4442 17.4411H18.0536L19.5385 13.2029H17.6515L15.7335 16.4821L13.9701 13.2029H11.9593L13.4442 17.4411Z" fill="white"/>
<path d="M13.4442 17.4409L10.4434 9.05731H7.6283L8.12327 10.3566H9.54631L12.5161 18.7402L13.4442 17.4409Z" fill="white"/>
</g>
<path d="M50.1937 23.4706L48.7222 19.9789H42.0132L40.5417 23.4706H37.0251L44.183 6.83536H46.7269L53.6853 23.4706H50.1937ZM43.0358 17.3352H47.7744L45.4051 11.3496L43.0358 17.3352Z" fill="white"/>
<path d="M54.2984 23.4706V12.6714H57.3411V14.0681C58.1724 12.9042 59.2864 12.3222 60.6831 12.3222C62.0964 12.3222 63.1605 12.7628 63.8755 13.6441C64.4408 14.3424 64.7234 15.3566 64.7234 16.6868V23.4706H61.6807V17.5847C61.6807 16.5704 61.4895 15.8638 61.1071 15.4647C60.7579 15.0989 60.284 14.916 59.6855 14.916C58.8541 14.916 58.2306 15.2319 57.815 15.8638C57.499 16.3626 57.3411 17.0609 57.3411 17.9588V23.4706H54.2984Z" fill="white"/>
<path d="M71.8785 15.2652H69.7835V23.4706H66.7407V15.2652H65.5436V12.6714H66.7407V8.98023H69.7835V12.6714H71.8785V15.2652Z" fill="white"/>
<path d="M80.8629 14.0681V12.6714H83.9056V23.4706H80.8629V22.0739C80.0482 23.2378 78.9425 23.8197 77.5458 23.8197C75.9164 23.8197 74.5862 23.2627 73.5554 22.1487C72.5411 21.0347 72.034 19.6713 72.034 18.0585C72.034 16.4291 72.5328 15.0657 73.5304 13.9683C74.5281 12.8709 75.8166 12.3222 77.3962 12.3222C78.9591 12.3222 80.1147 12.9042 80.8629 14.0681ZM80.3142 15.8887C79.7489 15.3068 79.0339 15.0158 78.1693 15.0158C77.3047 15.0158 76.5898 15.3068 76.0245 15.8887C75.4592 16.4706 75.1765 17.1939 75.1765 18.0585C75.1765 18.9231 75.4592 19.6547 76.0245 20.2533C76.5898 20.8352 77.3047 21.1262 78.1693 21.1262C79.0339 21.1262 79.7489 20.8352 80.3142 20.2533C80.8795 19.6547 81.1622 18.9231 81.1622 18.0585C81.1622 17.1939 80.8795 16.4706 80.3142 15.8887Z" fill="white"/>
<path d="M85.9263 23.4706V12.6714H88.969V14.2925C89.3348 13.5942 89.7837 13.0954 90.3158 12.7961C90.8146 12.4802 91.4131 12.3222 92.1115 12.3222C92.5105 12.3222 92.9428 12.4054 93.4084 12.5716L93.0093 15.4148C92.6269 15.1488 92.153 15.0158 91.5877 15.0158C90.7065 15.0158 90.0331 15.3068 89.5675 15.8887C89.1685 16.3875 88.969 17.1856 88.969 18.283V23.4706H85.9263Z" fill="white"/>
<path d="M101.304 20.0039L104.097 20.4528C103.981 20.7521 103.823 21.0514 103.623 21.3506C103.44 21.6333 103.149 21.9908 102.75 22.4231C102.351 22.8388 101.811 23.1796 101.129 23.4456C100.448 23.695 99.6661 23.8197 98.7848 23.8197C97.0889 23.8197 95.7089 23.3126 94.6447 22.2984C93.5141 21.2343 92.9488 19.8293 92.9488 18.0835C92.9488 16.3543 93.4975 14.941 94.5948 13.8436C95.6257 12.8294 96.9808 12.3222 98.6601 12.3222C100.489 12.3222 101.894 12.9125 102.875 14.093C103.74 15.1239 104.172 16.5372 104.172 18.3329V18.5823H96.0913C96.0913 19.3138 96.2659 19.9207 96.615 20.4029C97.1138 21.0846 97.8371 21.4255 98.7848 21.4255C99.9155 21.4255 100.755 20.9516 101.304 20.0039ZM96.191 16.6369H101.304C101.187 15.9386 100.88 15.4065 100.381 15.0407C99.8988 14.6583 99.3501 14.4671 98.7349 14.4671C98.1364 14.4671 97.5877 14.6583 97.0889 15.0407C96.6067 15.4232 96.3074 15.9552 96.191 16.6369Z" fill="white"/>
<path d="M113.03 13.4695L111.534 15.2403C111.018 14.7581 110.428 14.517 109.763 14.517C109.397 14.517 109.106 14.6001 108.89 14.7664C108.69 14.916 108.591 15.1239 108.591 15.3899C108.591 15.8222 108.915 16.1464 109.563 16.3626L110.286 16.587C111.7 17.036 112.614 17.5514 113.03 18.1333C113.396 18.6321 113.579 19.2307 113.579 19.929C113.579 21.0264 113.18 21.9409 112.381 22.6725C111.55 23.4373 110.469 23.8197 109.139 23.8197C107.46 23.8197 106.063 23.2212 104.949 22.024L106.545 20.1784C107.26 21.0098 108.058 21.4255 108.94 21.4255C109.372 21.4255 109.729 21.3257 110.012 21.1262C110.295 20.91 110.436 20.6191 110.436 20.2533C110.436 19.7545 110.12 19.3887 109.488 19.1559L108.79 18.9065C107.709 18.5241 106.936 18.0918 106.471 17.6096C105.922 17.0276 105.648 16.3376 105.648 15.5395C105.648 14.5419 106.022 13.7272 106.77 13.0954C107.418 12.58 108.358 12.3222 109.588 12.3222C110.885 12.3222 112.032 12.7047 113.03 13.4695Z" fill="white"/>
<path d="M124.704 16.7754C125.412 16.7754 126.002 17.0113 126.475 17.483C126.947 17.9547 127.183 18.5443 127.183 19.3698V23.4972H126.357V19.3698C126.357 18.7802 126.239 18.4264 125.884 18.0726C125.648 17.7188 125.176 17.6009 124.704 17.6009C124.231 17.6009 123.759 17.7188 123.405 18.0726C123.05 18.4264 122.932 19.016 122.932 19.7236V23.3792H122.106V19.2519C122.106 18.6622 121.988 18.3085 121.751 17.9547C121.515 17.6009 121.161 17.483 120.689 17.483C120.216 17.483 119.744 17.7188 119.39 18.0726C119.036 18.4264 118.799 19.016 118.799 19.7236V23.3792H117.973V16.6575H118.799V17.7188C119.272 17.0113 119.862 16.6575 120.807 16.6575C121.751 16.6575 122.342 17.0113 122.696 17.8368C123.05 17.1292 123.759 16.7754 124.704 16.7754Z" fill="white"/>
<path d="M134.029 16.7778H134.856V23.4995H134.029V22.0844C133.439 23.0278 132.612 23.4995 131.431 23.4995C130.487 23.4995 129.778 23.1457 129.07 22.5561C128.479 21.9665 128.125 21.141 128.125 20.1976C128.125 19.2542 128.479 18.4287 129.07 17.8391C129.66 17.2495 130.487 16.8957 131.431 16.8957C132.612 16.8957 133.439 17.3674 134.029 18.3108V16.7778ZM129.778 21.8485C130.251 22.3202 130.841 22.5561 131.549 22.5561C132.258 22.5561 132.848 22.3202 133.321 21.8485C133.793 21.3768 134.029 20.7872 134.029 20.0797C134.029 19.3721 133.793 18.7825 133.321 18.3108C132.848 17.8391 132.258 17.6032 131.549 17.6032C130.841 17.6032 130.251 17.8391 129.778 18.3108C129.306 18.7825 129.07 19.3721 129.07 20.0797C129.07 20.7872 129.306 21.3768 129.778 21.8485Z" fill="white"/>
<path d="M136.869 17.9547C137.224 17.1292 137.932 16.7754 138.877 16.7754V17.6009C138.286 17.6009 137.814 17.7188 137.46 18.0726C137.105 18.4264 136.869 18.8981 136.869 19.7235V23.3792H136.043V16.6575H136.869V17.9547Z" fill="white"/>
<path d="M145.252 23.4988H144.071L140.883 20.3148V23.4988H140.056V14.4185H140.883V19.7252L143.953 16.777H145.134L141.709 19.961L145.252 23.4988Z" fill="white"/>
<path d="M148.557 16.7778C149.502 16.7778 150.21 17.1315 150.8 17.7212C151.391 18.4287 151.627 19.1363 151.627 20.0797C151.627 20.1976 151.627 20.3155 151.627 20.4334H146.077C146.195 21.0231 146.431 21.6127 146.904 21.9665C147.376 22.3202 147.966 22.5561 148.675 22.5561C149.147 22.5561 149.62 22.4382 149.974 22.2023C150.328 21.9665 150.564 21.7306 150.8 21.3768L151.509 21.8485C151.273 22.3202 150.8 22.674 150.328 22.9099C149.856 23.1457 149.265 23.2636 148.675 23.2636C147.73 23.2636 146.904 22.9099 146.195 22.3202C145.605 21.7306 145.251 20.9051 145.251 19.9617C145.251 19.0183 145.605 18.1929 146.195 17.6032C146.786 17.1315 147.612 16.7778 148.557 16.7778ZM148.557 17.6032C147.848 17.6032 147.376 17.8391 146.904 18.1929C146.431 18.5466 146.195 19.1363 146.077 19.7259H150.8C150.682 19.0183 150.446 18.5466 149.974 18.1929C149.62 17.7212 149.147 17.6032 148.557 17.6032Z" fill="white"/>
<path d="M156.231 17.6035H154.342L154.46 21.7308C154.46 22.0846 154.578 22.3205 154.696 22.4384C154.814 22.5563 155.05 22.6742 155.287 22.6742C155.523 22.6742 155.877 22.6742 156.349 22.6742V23.3818C155.405 23.4997 154.814 23.4997 154.342 23.1459C153.87 22.9101 153.633 22.4384 153.633 21.6129L153.515 17.4855H152.216V16.6601H153.515V15.3629H154.342V16.6601H156.231V17.6035Z" fill="white"/>
<path d="M157.173 15.3612C157.63 15.3612 158 14.9916 158 14.5357C158 14.0798 157.63 13.7102 157.173 13.7102C156.717 13.7102 156.347 14.0798 156.347 14.5357C156.347 14.9916 156.717 15.3612 157.173 15.3612Z" fill="white"/>
<path d="M18.5067 28.4967H12.0487C6.35058 28.4967 1.71606 23.8622 1.71606 18.164V11.7061C1.71606 6.00789 6.35058 1.37338 12.0487 1.37338H18.5067C24.2048 1.37338 28.8393 6.00789 28.8393 11.7061V18.164C28.8393 23.8622 24.2048 28.4967 18.5067 28.4967Z" fill="#4EE8C4"/>
<g clip-path="url(#clip1)">
<path d="M13.7879 21.8307C14.3964 21.8307 14.8897 21.3374 14.8897 20.7289C14.8897 20.1204 14.3964 19.6272 13.7879 19.6272C13.1794 19.6272 12.6862 20.1204 12.6862 20.7289C12.6862 21.3374 13.1794 21.8307 13.7879 21.8307Z" fill="black"/>
<path d="M17.6767 21.8307C18.2852 21.8307 18.7785 21.3374 18.7785 20.7289C18.7785 20.1204 18.2852 19.6272 17.6767 19.6272C17.0682 19.6272 16.575 20.1204 16.575 20.7289C16.575 21.3374 17.0682 21.8307 17.6767 21.8307Z" fill="black"/>
<path d="M19.1024 18.8495H12.3299L9.80237 11.6881H14.663L15.7324 13.6972L16.8989 11.6881H21.5976L19.1024 18.8495ZM13.302 17.4885H18.1303L19.6857 13.0491H17.7091L15.7 16.4839L13.8529 13.0491H11.7466L13.302 17.4885Z" fill="black"/>
<path d="M13.3021 17.4882L10.1589 8.70663H7.21008L7.72855 10.0676H9.21916L12.33 18.8492L13.3021 17.4882Z" fill="black"/>
</g>
<defs>
<clipPath id="clip0">
<rect width="13.7664" height="12.529" fill="white" transform="translate(7.6283 9.05731)"/>
</clipPath>
<clipPath id="clip1">
<rect width="14.42" height="13.1238" fill="white" transform="translate(7.21008 8.70663)"/>
</clipPath>
</defs>
</svg>
