<svg width="27" height="27" viewBox="0 0 27 27" fill="none" xmlns="http://www.w3.org/2000/svg">
<path d="M23.571 10.6478L14.6241 1.70085C13.6992 0.775891 12.194 0.775838 11.269 1.70085C10.4375 2.53231 10.3659 3.80041 10.9799 4.70591L10.9675 4.76819C10.3224 7.99368 8.75206 10.928 6.426 13.254L2.32227 17.3578C1.3951 18.285 1.39494 19.7856 2.32227 20.7128L4.55894 22.9495C5.48606 23.8767 6.98678 23.8767 7.914 22.9495L8.4732 22.3903L12.3875 26.3046C13.3146 27.2318 14.8152 27.2318 15.7425 26.3046C16.6675 25.3796 16.6675 23.8745 15.7425 22.9495L14.0649 21.272L14.6241 20.7128C15.5513 19.7857 15.5514 18.2851 14.6241 17.3578L14.2441 16.9778C16.1135 15.6689 18.2365 14.7578 20.5037 14.3043L20.5668 14.2917C21.4924 14.9166 22.7576 14.8162 23.571 14.0028H23.5711C24.4959 13.0778 24.4959 11.5728 23.571 10.6478ZM6.79567 21.8312C6.48664 22.1401 5.9863 22.1402 5.67728 21.8311L3.44061 19.5944C3.13153 19.2853 3.13153 18.7852 3.44061 18.4761L7.35481 14.5618L10.7099 17.9169C10.3269 18.2999 7.18806 21.4387 6.79567 21.8312ZM14.6241 24.0678C14.9324 24.3761 14.9324 24.8778 14.6241 25.1862C14.3158 25.4944 13.814 25.4944 13.5057 25.1862L9.59148 21.2719L10.7099 20.1536L14.6241 24.0678ZM11.8282 19.0352C12.0659 18.7975 12.4218 18.4334 12.9834 17.9537L13.5057 18.4761C13.8148 18.7852 13.8148 19.2853 13.5057 19.5944L12.9465 20.1536L11.8282 19.0352ZM11.8618 16.8322L8.43945 13.4099C10.2735 11.2921 11.5869 8.79224 12.2896 6.07642L19.1952 12.9821C16.4794 13.6847 13.9796 14.9981 11.8618 16.8322ZM22.4525 12.8844C22.1434 13.1934 21.6433 13.1934 21.3342 12.8844L12.3873 3.93752C12.0783 3.62839 12.0783 3.12826 12.3873 2.81919C12.6964 2.51011 13.1967 2.51011 13.5057 2.81919L22.4525 11.766C22.7608 12.0743 22.7608 12.576 22.4525 12.8844Z" fill="black"/>
<path d="M7.91397 17.3577C7.60521 17.0489 7.10444 17.0489 6.79563 17.3577L5.67729 18.476C5.36848 18.7849 5.36848 19.2856 5.67729 19.5944C5.98605 19.9032 6.48687 19.9032 6.79563 19.5944L7.91397 18.476C8.22278 18.1672 8.22278 17.6665 7.91397 17.3577Z" fill="black"/>
<path d="M18.2561 0C17.8194 0 17.4653 0.354058 17.4653 0.790803V2.37241C17.4653 2.80915 17.8194 3.16321 18.2561 3.16321C18.6929 3.16321 19.0469 2.80915 19.0469 2.37241V0.790803C19.0469 0.354058 18.6929 0 18.2561 0Z" fill="black"/>
<path d="M24.5825 6.32632H23.0009C22.5641 6.32632 22.2101 6.68038 22.2101 7.11713C22.2101 7.55387 22.5641 7.90793 23.0009 7.90793H24.5825C25.0192 7.90793 25.3733 7.55387 25.3733 7.11713C25.3733 6.68038 25.0192 6.32632 24.5825 6.32632Z" fill="black"/>
<path d="M23.5601 1.81315C23.2513 1.50434 22.7506 1.50434 22.4418 1.81315L20.8601 3.39476C20.5513 3.70357 20.5513 4.20428 20.8601 4.51309C21.1689 4.82191 21.6697 4.82196 21.9785 4.51309L23.5601 2.93149C23.8689 2.62268 23.8689 2.12202 23.5601 1.81315Z" fill="black"/>
</svg>
