<svg width="26" height="26" viewBox="0 0 26 26" fill="none" xmlns="http://www.w3.org/2000/svg">
<g clip-path="url(#clip0)">
<path d="M5.81935 25.4742C5.53449 25.4742 5.25162 25.3854 5.0102 25.2108C4.5605 24.8849 4.35043 24.3247 4.47282 23.7841L6.14547 16.4161L0.472902 11.4414C0.0559295 11.0774 -0.103361 10.5009 0.0678317 9.97346C0.239024 9.44699 0.704796 9.07425 1.25626 9.02327L8.76177 8.34187L11.7292 1.39756C11.948 0.887353 12.4463 0.557861 12.9999 0.557861C13.5536 0.557861 14.0519 0.887353 14.2707 1.39637L17.2381 8.34187L24.7424 9.02327C25.2951 9.07306 25.7608 9.44699 25.932 9.97346C26.1032 10.4999 25.9449 11.0774 25.5279 11.4414L19.8554 16.4151L21.528 23.7829C21.6506 24.3247 21.4403 24.8849 20.9908 25.2098C20.5423 25.5347 19.9442 25.5597 19.4719 25.2759L12.9999 21.4083L6.52793 25.2781C6.30913 25.408 6.06533 25.4742 5.81935 25.4742ZM12.9999 19.7422C13.2459 19.7422 13.4895 19.8082 13.7085 19.9381L19.8165 23.5913L18.2379 16.6371C18.1252 16.1422 18.2932 15.6254 18.6757 15.2906L24.0318 10.5932L16.9455 9.94966C16.4353 9.90304 15.9965 9.58228 15.7971 9.11214L12.9999 2.55881L10.1993 9.11313C10.0022 9.5801 9.56338 9.90086 9.05436 9.94748L1.96702 10.591L7.32299 15.2884C7.70664 15.6242 7.87446 16.14 7.76079 16.6361L6.18336 23.5901L12.2914 19.9381C12.5102 19.8082 12.7539 19.7422 12.9999 19.7422ZM8.70444 8.47617C8.70444 8.47617 8.70444 8.47736 8.70325 8.47835L8.70444 8.47617ZM17.2932 8.473L17.2944 8.47518C17.2944 8.47399 17.2944 8.47399 17.2932 8.473Z" fill="black"/>
</g>
<defs>
<clipPath id="clip0">
<rect width="26" height="26" fill="white"/>
</clipPath>
</defs>
</svg>
