<svg width="26" height="26" viewBox="0 0 26 26" fill="none" xmlns="http://www.w3.org/2000/svg">
<path d="M23.3426 4.21006L13.3894 0.0776382C13.1401 -0.025854 12.8598 -0.0259048 12.6106 0.0776382L2.65743 4.21006C2.27835 4.36749 2.03125 4.73758 2.03125 5.14804V10.1716C2.03125 17.0886 6.21202 23.3107 12.6162 25.9247C12.8622 26.0251 13.1378 26.0251 13.3838 25.9247C19.7879 23.3108 23.9688 17.0887 23.9688 10.1716V5.14804C23.9688 4.73758 23.7217 4.36749 23.3426 4.21006ZM21.9375 10.1716C21.9375 16.0518 18.4844 21.4649 13 23.8812C7.66218 21.5295 4.0625 16.2111 4.0625 10.1716V5.82608L13 2.11529L21.9375 5.82608V10.1716ZM11.8774 13.5949L16.2428 9.22964C16.6394 8.83304 17.2824 8.83299 17.6791 9.22964C18.0757 9.62629 18.0757 10.2693 17.679 10.6659L12.5956 15.7494C12.1989 16.1461 11.5558 16.1459 11.1593 15.7494L8.32091 12.911C7.92426 12.5144 7.92426 11.8713 8.32091 11.4747C8.71757 11.0781 9.36061 11.0781 9.75721 11.4747L11.8774 13.5949Z" fill="black"/>
</svg>
